<mxfile host="app.diagrams.net" modified="2023-08-11T09:52:09.402Z" agent="Mozilla/5.0 (X11; Linux x86_64) AppleWebKit/537.36 (KHTML, like Gecko) Chrome/114.0.0.0 Safari/537.36" etag="EPzi0Ux1h9U2AGm-PAxI" version="21.6.8" type="device">
  <diagram name="Page-1" id="WbLNhSaKDx6Jd7l61Uww">
    <mxGraphModel dx="896" dy="493" grid="1" gridSize="10" guides="1" tooltips="1" connect="1" arrows="1" fold="1" page="1" pageScale="1" pageWidth="827" pageHeight="1169" math="0" shadow="0">
      <root>
        <mxCell id="0" />
        <mxCell id="1" parent="0" />
        <mxCell id="air0U7epTB94DamMLi5x-9" style="edgeStyle=orthogonalEdgeStyle;rounded=0;orthogonalLoop=1;jettySize=auto;html=1;exitX=0.5;exitY=0;exitDx=0;exitDy=0;entryX=0.5;entryY=1;entryDx=0;entryDy=0;endArrow=none;endFill=0;" edge="1" parent="1" source="air0U7epTB94DamMLi5x-1" target="air0U7epTB94DamMLi5x-2">
          <mxGeometry relative="1" as="geometry" />
        </mxCell>
        <mxCell id="air0U7epTB94DamMLi5x-10" style="edgeStyle=orthogonalEdgeStyle;rounded=0;orthogonalLoop=1;jettySize=auto;html=1;exitX=0.25;exitY=0;exitDx=0;exitDy=0;endArrow=none;endFill=0;" edge="1" parent="1" source="air0U7epTB94DamMLi5x-1">
          <mxGeometry relative="1" as="geometry">
            <mxPoint x="70" y="280.0000000000001" as="targetPoint" />
          </mxGeometry>
        </mxCell>
        <mxCell id="air0U7epTB94DamMLi5x-11" style="edgeStyle=orthogonalEdgeStyle;rounded=0;orthogonalLoop=1;jettySize=auto;html=1;exitX=0;exitY=0.5;exitDx=0;exitDy=0;entryX=1;entryY=0.5;entryDx=0;entryDy=0;endArrow=none;endFill=0;" edge="1" parent="1" source="air0U7epTB94DamMLi5x-1" target="air0U7epTB94DamMLi5x-5">
          <mxGeometry relative="1" as="geometry" />
        </mxCell>
        <mxCell id="air0U7epTB94DamMLi5x-12" style="edgeStyle=orthogonalEdgeStyle;rounded=0;orthogonalLoop=1;jettySize=auto;html=1;exitX=0.25;exitY=1;exitDx=0;exitDy=0;endArrow=none;endFill=0;" edge="1" parent="1" source="air0U7epTB94DamMLi5x-1" target="air0U7epTB94DamMLi5x-6">
          <mxGeometry relative="1" as="geometry" />
        </mxCell>
        <mxCell id="air0U7epTB94DamMLi5x-13" style="edgeStyle=orthogonalEdgeStyle;rounded=0;orthogonalLoop=1;jettySize=auto;html=1;exitX=0.5;exitY=1;exitDx=0;exitDy=0;entryX=0.5;entryY=0;entryDx=0;entryDy=0;endArrow=none;endFill=0;" edge="1" parent="1" source="air0U7epTB94DamMLi5x-1" target="air0U7epTB94DamMLi5x-7">
          <mxGeometry relative="1" as="geometry" />
        </mxCell>
        <mxCell id="air0U7epTB94DamMLi5x-14" style="edgeStyle=orthogonalEdgeStyle;rounded=0;orthogonalLoop=1;jettySize=auto;html=1;exitX=0.75;exitY=1;exitDx=0;exitDy=0;entryX=0;entryY=0.5;entryDx=0;entryDy=0;endArrow=none;endFill=0;" edge="1" parent="1" source="air0U7epTB94DamMLi5x-1" target="air0U7epTB94DamMLi5x-8">
          <mxGeometry relative="1" as="geometry" />
        </mxCell>
        <mxCell id="air0U7epTB94DamMLi5x-16" style="edgeStyle=orthogonalEdgeStyle;rounded=0;orthogonalLoop=1;jettySize=auto;html=1;exitX=0.75;exitY=0;exitDx=0;exitDy=0;endArrow=none;endFill=0;" edge="1" parent="1" source="air0U7epTB94DamMLi5x-1">
          <mxGeometry relative="1" as="geometry">
            <mxPoint x="320" y="280.0000000000001" as="targetPoint" />
          </mxGeometry>
        </mxCell>
        <mxCell id="air0U7epTB94DamMLi5x-32" style="edgeStyle=orthogonalEdgeStyle;rounded=0;orthogonalLoop=1;jettySize=auto;html=1;entryX=0;entryY=0.5;entryDx=0;entryDy=0;" edge="1" parent="1" source="air0U7epTB94DamMLi5x-1" target="air0U7epTB94DamMLi5x-31">
          <mxGeometry relative="1" as="geometry" />
        </mxCell>
        <mxCell id="air0U7epTB94DamMLi5x-1" value="Accounts Table" style="rounded=1;arcSize=10;whiteSpace=wrap;html=1;align=center;fillColor=#d5e8d4;strokeColor=#82b366;" vertex="1" parent="1">
          <mxGeometry x="160" y="340" width="100" height="40" as="geometry" />
        </mxCell>
        <mxCell id="air0U7epTB94DamMLi5x-2" value="Account&amp;nbsp;&lt;br&gt;Holder(s)" style="ellipse;whiteSpace=wrap;html=1;align=center;fillColor=#dae8fc;strokeColor=#6c8ebf;" vertex="1" parent="1">
          <mxGeometry x="140" y="240" width="100" height="40" as="geometry" />
        </mxCell>
        <mxCell id="air0U7epTB94DamMLi5x-4" value="Account &lt;br&gt;Number" style="ellipse;whiteSpace=wrap;html=1;align=center;fontStyle=4;fillColor=#dae8fc;strokeColor=#6c8ebf;" vertex="1" parent="1">
          <mxGeometry x="20" y="240" width="100" height="40" as="geometry" />
        </mxCell>
        <mxCell id="air0U7epTB94DamMLi5x-5" value="Phone Number" style="ellipse;whiteSpace=wrap;html=1;align=center;fillColor=#dae8fc;strokeColor=#6c8ebf;" vertex="1" parent="1">
          <mxGeometry x="10" y="340" width="100" height="40" as="geometry" />
        </mxCell>
        <mxCell id="air0U7epTB94DamMLi5x-6" value="Account Type" style="ellipse;whiteSpace=wrap;html=1;align=center;fillColor=#dae8fc;strokeColor=#6c8ebf;" vertex="1" parent="1">
          <mxGeometry x="10" y="440" width="100" height="40" as="geometry" />
        </mxCell>
        <mxCell id="air0U7epTB94DamMLi5x-7" value="Balance" style="ellipse;whiteSpace=wrap;html=1;align=center;fillColor=#dae8fc;strokeColor=#6c8ebf;" vertex="1" parent="1">
          <mxGeometry x="150" y="460" width="100" height="40" as="geometry" />
        </mxCell>
        <mxCell id="air0U7epTB94DamMLi5x-8" value="Interest Rate" style="ellipse;whiteSpace=wrap;html=1;align=center;fillColor=#dae8fc;strokeColor=#6c8ebf;" vertex="1" parent="1">
          <mxGeometry x="280" y="410" width="100" height="40" as="geometry" />
        </mxCell>
        <mxCell id="air0U7epTB94DamMLi5x-15" value="Branch" style="ellipse;whiteSpace=wrap;html=1;align=center;fillColor=#dae8fc;strokeColor=#6c8ebf;" vertex="1" parent="1">
          <mxGeometry x="270" y="240" width="100" height="40" as="geometry" />
        </mxCell>
        <mxCell id="air0U7epTB94DamMLi5x-25" style="edgeStyle=orthogonalEdgeStyle;rounded=0;orthogonalLoop=1;jettySize=auto;html=1;exitX=0.25;exitY=0;exitDx=0;exitDy=0;entryX=0.5;entryY=1;entryDx=0;entryDy=0;endArrow=none;endFill=0;" edge="1" parent="1" source="air0U7epTB94DamMLi5x-17" target="air0U7epTB94DamMLi5x-18">
          <mxGeometry relative="1" as="geometry" />
        </mxCell>
        <mxCell id="air0U7epTB94DamMLi5x-26" style="edgeStyle=orthogonalEdgeStyle;rounded=0;orthogonalLoop=1;jettySize=auto;html=1;exitX=0.75;exitY=0;exitDx=0;exitDy=0;entryX=0.5;entryY=1;entryDx=0;entryDy=0;endArrow=none;endFill=0;" edge="1" parent="1" source="air0U7epTB94DamMLi5x-17" target="air0U7epTB94DamMLi5x-20">
          <mxGeometry relative="1" as="geometry" />
        </mxCell>
        <mxCell id="air0U7epTB94DamMLi5x-27" style="edgeStyle=orthogonalEdgeStyle;rounded=0;orthogonalLoop=1;jettySize=auto;html=1;exitX=1;exitY=0.25;exitDx=0;exitDy=0;entryX=0.5;entryY=1;entryDx=0;entryDy=0;endArrow=none;endFill=0;" edge="1" parent="1" source="air0U7epTB94DamMLi5x-17" target="air0U7epTB94DamMLi5x-23">
          <mxGeometry relative="1" as="geometry" />
        </mxCell>
        <mxCell id="air0U7epTB94DamMLi5x-28" style="edgeStyle=orthogonalEdgeStyle;rounded=0;orthogonalLoop=1;jettySize=auto;html=1;exitX=1;exitY=0.75;exitDx=0;exitDy=0;entryX=0.5;entryY=0;entryDx=0;entryDy=0;endArrow=none;endFill=0;" edge="1" parent="1" source="air0U7epTB94DamMLi5x-17" target="air0U7epTB94DamMLi5x-24">
          <mxGeometry relative="1" as="geometry" />
        </mxCell>
        <mxCell id="air0U7epTB94DamMLi5x-29" style="edgeStyle=orthogonalEdgeStyle;rounded=0;orthogonalLoop=1;jettySize=auto;html=1;exitX=0.75;exitY=1;exitDx=0;exitDy=0;endArrow=none;endFill=0;" edge="1" parent="1" source="air0U7epTB94DamMLi5x-17" target="air0U7epTB94DamMLi5x-22">
          <mxGeometry relative="1" as="geometry" />
        </mxCell>
        <mxCell id="air0U7epTB94DamMLi5x-30" style="edgeStyle=orthogonalEdgeStyle;rounded=0;orthogonalLoop=1;jettySize=auto;html=1;exitX=0.25;exitY=1;exitDx=0;exitDy=0;entryX=0.5;entryY=0;entryDx=0;entryDy=0;endArrow=none;endFill=0;" edge="1" parent="1" source="air0U7epTB94DamMLi5x-17" target="air0U7epTB94DamMLi5x-21">
          <mxGeometry relative="1" as="geometry" />
        </mxCell>
        <mxCell id="air0U7epTB94DamMLi5x-17" value="Transactions" style="rounded=1;arcSize=10;whiteSpace=wrap;html=1;align=center;fillColor=#d5e8d4;strokeColor=#82b366;" vertex="1" parent="1">
          <mxGeometry x="580" y="330" width="100" height="40" as="geometry" />
        </mxCell>
        <mxCell id="air0U7epTB94DamMLi5x-18" value="Transaction Id" style="ellipse;whiteSpace=wrap;html=1;align=center;fontStyle=4;fillColor=#dae8fc;strokeColor=#6c8ebf;" vertex="1" parent="1">
          <mxGeometry x="500" y="230" width="100" height="40" as="geometry" />
        </mxCell>
        <mxCell id="air0U7epTB94DamMLi5x-20" value="Amount" style="ellipse;whiteSpace=wrap;html=1;align=center;fillColor=#dae8fc;strokeColor=#6c8ebf;" vertex="1" parent="1">
          <mxGeometry x="630" y="230" width="100" height="40" as="geometry" />
        </mxCell>
        <mxCell id="air0U7epTB94DamMLi5x-21" value="From Account" style="ellipse;whiteSpace=wrap;html=1;align=center;fillColor=#dae8fc;strokeColor=#6c8ebf;" vertex="1" parent="1">
          <mxGeometry x="470" y="430" width="100" height="40" as="geometry" />
        </mxCell>
        <mxCell id="air0U7epTB94DamMLi5x-22" value="To Acount" style="ellipse;whiteSpace=wrap;html=1;align=center;fillColor=#dae8fc;strokeColor=#6c8ebf;" vertex="1" parent="1">
          <mxGeometry x="610" y="430" width="100" height="40" as="geometry" />
        </mxCell>
        <mxCell id="air0U7epTB94DamMLi5x-23" value="Debit/credit" style="ellipse;whiteSpace=wrap;html=1;align=center;fillColor=#dae8fc;strokeColor=#6c8ebf;" vertex="1" parent="1">
          <mxGeometry x="727" y="280" width="100" height="40" as="geometry" />
        </mxCell>
        <mxCell id="air0U7epTB94DamMLi5x-24" value="TimeStamp" style="ellipse;whiteSpace=wrap;html=1;align=center;fillColor=#dae8fc;strokeColor=#6c8ebf;" vertex="1" parent="1">
          <mxGeometry x="727" y="390" width="100" height="40" as="geometry" />
        </mxCell>
        <mxCell id="air0U7epTB94DamMLi5x-33" style="edgeStyle=orthogonalEdgeStyle;rounded=0;orthogonalLoop=1;jettySize=auto;html=1;entryX=0;entryY=0.5;entryDx=0;entryDy=0;" edge="1" parent="1" source="air0U7epTB94DamMLi5x-31" target="air0U7epTB94DamMLi5x-17">
          <mxGeometry relative="1" as="geometry" />
        </mxCell>
        <mxCell id="air0U7epTB94DamMLi5x-31" value="Make &lt;br&gt;Transaction" style="shape=rhombus;perimeter=rhombusPerimeter;whiteSpace=wrap;html=1;align=center;fillColor=#f8cecc;strokeColor=#b85450;" vertex="1" parent="1">
          <mxGeometry x="370" y="330" width="120" height="60" as="geometry" />
        </mxCell>
      </root>
    </mxGraphModel>
  </diagram>
</mxfile>
